<svg xmlns="http://www.w3.org/2000/svg" width="489.353" height="156.207" viewBox="0 0 489.353 156.207"><defs><style>.cls-1{fill:#36160f;}</style></defs><title>bg_lineup</title><g id="レイヤー_2" data-name="レイヤー 2"><g id="lineup"><path class="cls-1" d="M0,0C7.379,5.3,12.337,16.475,9.372,39.606.553,108.4,48.675,94.414,52.236,54.815c3.557-39.551,23.581-39.5,35.541-38.809,11.558.667,17.148,14.18,31.752,34.406,22.932,31.751,55.658,33.291,85.644-1.987,18.911-22.248,30.175-25.9,37.017,1.958,2.816,11.475-3.167,69.131,33.234,63.783,15.389-2.259,17.609-13.886,18.418-29.031,4.385-23.962,15.588-34.461,26.677-35.1,12.653-.725,27.629,4.4,33.593,17.027,7.957,16.841,1.469,32.775.9,51.855s3.861,33.84,20.57,36.774c14.328,2.516,29.51-4.183,32.638-20.17s-.407-25.02-2.241-41.262S402.3,50.4,420.655,49.126c14.905-1.032,17.654-45.359,24.092-37.381,7.528,9.332,11.692,14.989,21.967,14.359C478,25.415,484.632,13.178,489.353,6.252V0Z"/></g></g></svg>