<svg xmlns="http://www.w3.org/2000/svg" width="260.397" height="176.294" viewBox="0 0 260.397 176.294"><defs><style>.cls-1{fill:#210000;}</style></defs><title>img_cat</title><g id="レイヤー_2" data-name="レイヤー 2"><g id="猫"><path class="cls-1" d="M217.405,77.918c2.221-2.625,13.125-8.683,16.76-15.548s2.221-5.048,2.221-5.048L237.4,52.88l1.01-2.827.2-2.019-1.01,1.413,1.01-3.836.606-2.625.2-2.019s1.817-9.692,1.211-12.519a20.9,20.9,0,0,0-1.817-5.048l.606,3.029s-.808-2.221-1.616-5.452-3.836-7.471-3.836-7.471l-4.146-4.975-.9-1.083a27.642,27.642,0,0,0-4.644-4.038c-1.818-1.009-4.443-2.221-4.443-2.221l.4.808A9.763,9.763,0,0,0,215.184.18a32.741,32.741,0,0,0-5.869-.089c-.623.045-1,.089-1,.089a34.288,34.288,0,0,0-6.259.807A13.664,13.664,0,0,0,198.829,2.6a13.812,13.812,0,0,1-2.221,1.616c-1.615,1.009-3.635,2.019-3.635,2.019l-2.726,2.726-.5.5v2.02s-1.01-.2.2,1.009,1.615,3.029,3.432,2.222A32.073,32.073,0,0,1,197.82,13.1c3.028-1.009,9.489-4.24,16.557,0s13.124,9.086,12.721,21-.2,24.836-17.769,35.942Z"/><path class="cls-1" d="M25.031,67.2a1.386,1.386,0,0,0,.379-1.892c-1.17-1.793-3.329-5.268-3.878-7.28-.763-2.8.89-1.907,3.942-.635A42.046,42.046,0,0,0,41.5,60.447s2.8-.636,5.722,2.162,7.5,2.542,13.1,4.45,9.791,3.306,11.317,4.832,9.664,3.306,13.1,2.162a122.723,122.723,0,0,1,19.074-4.832c10.427-1.908,21.108-5.6,33.824-5.6a215.126,215.126,0,0,0,31.027-2.416c8.266-1.145,9.792-1.018,17.549.254s29.883-3.434,38.148,25.178,5.849,35.859,9.41,38.021,7.884,5.086,9.791,10.427,3.561,4.7,6.612,10.173,8.775,18.565,8.775,18.565,3.942,9.283-1.145,10.046-7.375-3.815-10.046-9.41-8.265-16.277-11.19-18.947S224.353,138.4,220.03,137s-11.063-3.306-15.9-6.612-4.96-3.688-7.121-4.578a14.366,14.366,0,0,1-3.943-2.161c-.762-.636-2.161-1.4-2.8.127s2.035,8.265,4.069,12.08,3.561,7.121,3.688,10.046-2.385,8.774-4.483,10.872a138.808,138.808,0,0,0-10.4,13.352c-2.193,3.338-4.292,4.673-5.627,4.673s-9.156-.095-11.349,0-3.529.191-2.48-2.861,2.766-7.153,5.532-7.153,5.341,4.2,6.294,1.24,3.815-10.2,6.867-11.731,1.526-2.1,1.526-3.91-.668-3.338-2.766-5.341-8.679-7.343-11.158-11.826-6.1-12.779-8.965-11.826a61.727,61.727,0,0,1-11.826,2.289c-3.052.191-10.586-.667-13.161-.381a44.041,44.041,0,0,1-9.633.477c-3.337-.382-8.869-.668-9.346.095s.382,2.575,2.1,7.534,4.388,21.172,5.055,25.75,1.145,8.679.477,11.35-.668,3.624-1.24,4.959-.763,2.766-6.581,2.766-7.152.762-8.2-2.862,2.861-2.861,4.577-6.1,2.1-4.578,0-8.584-2.1-8.583-5.34-13.065-6.486-8.775-10.11-11.349-7.915-5.627-9.632-7.439-4.1-3.815-7.153-1.05-7.057,5.341-11.731,9.728-22.7,20.886-27.657,24.987S33.8,168.5,29.7,168.978s-7.534.954-9.346,1.145-2.48-.191-4.292-1.812-4.769-3.338.095-5.532,6.39.382,10.586-3.814,21.077-24.225,23.366-28.421,1.755-20.122,1.812-22.317c.095-3.624-3.624-5.627-7.057-6.58s-7.428-2-12.208.572c-6.2,3.338-8.488,2.1-11.826-.572s-5.054-4.674-6.771-5.722-.1-2.671.954-4.865.19-6.675,1.144-11.349C17.035,75.422,20.8,70.195,25.031,67.2Z"/><path class="cls-1" d="M51.649,66.986c-1.058.719-3.44,2.47-4.882,2.8s-4.706,3.376-5.916,4.016A34.766,34.766,0,0,1,35.612,76c-1.359.365-6.121,1.277-8.5,2.285S17.774,80.535,15.845,81s-5.145.4-6.658.589C4.65,82.168-.615,79.467.059,77.7c.886-2.319,7.5-1.833,10.8-2.929s5.609-5.911,7.068-8.824c0,0,.74-5.03.379-6.928s-1.08-4.855-.918-6.474a15.009,15.009,0,0,0-.576-5.2,10.366,10.366,0,0,1-.665-3.864,15.926,15.926,0,0,0-.828-4.608,13.981,13.981,0,0,1-.141-3.585c.015-1.055,1.117-4.643.906-5.846s.48-2.141.766-3.268a33.7,33.7,0,0,0,.4-5.3,31.188,31.188,0,0,1,.882-6.591,35.061,35.061,0,0,1,1.927-4.508,30.021,30.021,0,0,1,.534,3.794,34.4,34.4,0,0,0,.951,5.783,55.439,55.439,0,0,1,1.389,5.98,19.089,19.089,0,0,0,1.7,5.528c.442.511,1.673,2.858,3.037,5.012s1.87,2.648,2.594,2.978,3.7,1.683,4.309,2.832S36.1,46.419,36.9,47.043s2.093.117,2.945,1.621,1.414,3.033,2.23,3.706a15.111,15.111,0,0,1,2.329,3.522c.385.737.565,1.266,1.489,1.647s2.143,2.1,5.234.58c0,0,3.235-2.8,5.25-4.976s4.74-5.693,4.229-2.07S57.09,63.288,51.649,66.986Z"/></g></g></svg>