<svg xmlns="http://www.w3.org/2000/svg" width="74.811" height="67.564" viewBox="0 0 74.811 67.564"><defs><style>.cls-1{fill:#af8d31;}</style></defs><title>txt_eatme</title><g id="レイヤー_2" data-name="レイヤー 2"><g id="point"><path class="cls-1" d="M6.267,9.413,5.245,13.5a1.518,1.518,0,0,0,1.21,2.132c1.751.438,2.491-.729,2.878-2.277l.307-1.224,1.574.394L9.8,18.162,0,15.711l.352-1.42.829.076c.629.05,1.015-.652,1.3-1.8L4.639,3.945c.3-1.175.178-1.973-.3-2.207L3.579,1.42,3.931,0l9.8,2.457L12.374,7.885,10.8,7.492l.263-1.042c.466-1.871-.285-3.1-1.462-3.387-1.268-.319-1.793.184-2.079,1.329l-.82,3.247,2.475.622L8.739,10.03Z"/><path class="cls-1" d="M19.269,16.277l-.519.618c-.988,1.207-1.105,2.375-.678,2.8l.531.443-.62,1.328-4.943-2.3.618-1.323.59.072c.665.088,1.392-.426,3.158-2.525l7.3-8.656,2.172,1L24.659,19.673c-.337,1.83-.262,2.691.076,3.011l.531.561-.619,1.328-5.731-2.668.615-1.329.681.116c.7.1,1.256-.374,1.71-2.323l.161-.777Zm3.336-.966.892-3.926-.093-.04-2.639,3.112Z"/><path class="cls-1" d="M35.373,12.214l9.073,6.324-3.7,5.3L39.5,22.97l.825-1.182c.869-1.24,1.51-2.836.6-3.473-.8-.559-1.754.624-2.31,1.43L33.911,26.5c-.682.97-.938,1.7-.464,2.192l.578.56-.834,1.2-5.108-3.56.839-1.2.749.367c.6.253,1.194-.235,1.872-1.211l4.7-6.75c.564-.8,1.343-2.107.546-2.661-.908-.636-2.181.512-3.052,1.756l-.82,1.183-1.247-.862Z"/><path class="cls-1" d="M46.837,38.1c-.914.746-1.347,1.36-1.062,1.957l.256.514-1.142.925-2.95-3.658,1.139-.916.616.561c.489.39,1.2.087,2.113-.658l6.906-5.579c.937-.763,1.32-1.471,1.079-1.938l-.418-.715,1.139-.915,3.612,4.467L53,38.334l7.082-3.773,3.533,4.375-1.14.92-.616-.561c-.4-.332-1.176-.105-2.112.654l-6.9,5.584c-.917.745-1.371,1.367-1.067,1.947l.417.719-1.136.921-3.742-4.631,1.136-.921.454.361c.523.4,1.207.109,2.129-.635l6.9-5.589-.034-.028L46.633,43.65l-1.052-1.294,8.193-9.79-.032-.041Z"/><path class="cls-1" d="M61.442,52.266l-3.731,1.958a1.521,1.521,0,0,0-.78,2.327c.835,1.589,2.2,1.363,3.61.636l1.112-.593.75,1.434-5.138,2.7-4.686-8.938,1.293-.685.495.675c.379.5,1.155.321,2.2-.228l7.874-4.128c1.066-.562,1.582-1.186,1.436-1.689l-.267-.782,1.293-.684L71.6,53.2l-4.958,2.608-.754-1.435.955-.5c1.71-.9,2.115-2.269,1.558-3.338-.608-1.159-1.334-1.216-2.383-.663L63.058,51.42l1.182,2.251-1.616.847Z"/><path class="cls-1" d="M61.5,67.46a1.654,1.654,0,0,1-2.114-.835,1.631,1.631,0,0,1,1.135-1.951,1.6,1.6,0,0,1,2.108.8A1.622,1.622,0,0,1,61.5,67.46m1.945-3.217c3.314-1.335,6.342-3.4,7.74-3.9,1.437-.5,3.016-.491,3.51.911s-.724,2.433-2.148,2.94c-1.4.488-5.071.748-8.481,1.816Z"/></g></g></svg>